<?xml version="1.0" encoding="UTF-8"?>
<svg version="1.1" xmlns="http://www.w3.org/2000/svg" width="500" height="500">
<path d="M0 0 C165 0 330 0 500 0 C500 165 500 330 500 500 C335 500 170 500 0 500 C0 335 0 170 0 0 Z " fill="#000000" transform="translate(0,0)"/>
<path d="M0 0 C9.11128535 -0.0467001 18.2225284 -0.08205799 27.33390808 -0.10362434 C31.56639893 -0.11398419 35.79880685 -0.12799749 40.03125 -0.15087891 C44.12912795 -0.17288976 48.22692703 -0.18462695 52.32485962 -0.18975449 C53.87465656 -0.19340032 55.42445005 -0.20051647 56.97421265 -0.21146011 C79.49242227 -0.3638937 101.92549846 2.4343939 119.34765625 18.2578125 C130.23970687 29.74210228 134.17774828 42.89502323 134.1875 58.3125 C134.19974609 59.31990234 134.21199219 60.32730469 134.22460938 61.36523438 C134.25106622 74.90232041 130.03085967 87.74059856 121 98 C120.17435547 98.98226562 120.17435547 98.98226562 119.33203125 99.984375 C107.80632846 112.66510558 89.77034399 119.3751968 72.92553711 120.25244141 C68.38920775 120.43738608 63.85150626 120.53373503 59.3125 120.625 C57.72459019 120.66327461 56.13669903 120.70233147 54.54882812 120.7421875 C50.69937412 120.83713316 46.84982364 120.92152982 43 121 C43.9170874 121.59224365 44.8341748 122.1844873 45.77905273 122.79467773 C52.29924345 127.2589302 57.00306733 132.96577491 61.4375 139.4375 C61.93628662 140.15413818 62.43507324 140.87077637 62.94897461 141.60913086 C68.80829123 150.07694361 74.47783454 158.67462136 80.171875 167.25390625 C84.60678015 173.92705943 89.13775873 180.53012529 93.70117188 187.11572266 C95.06575116 189.09538862 96.41692377 191.0837055 97.765625 193.07421875 C103.56682444 201.61829969 109.59055719 209.89965249 116 218 C116.69609375 218.89976562 117.3921875 219.79953125 118.109375 220.7265625 C122.13154625 225.56314033 126.91021331 227.80200918 133 229 C139.7846718 229.59496353 145.42103175 228.92630619 151.80859375 226.55859375 C154.27241482 225.93056093 155.62339544 226.18253465 158 227 C158.33 228.98 158.66 230.96 159 233 C152.59661866 238.86976623 143.85656908 238.38386575 135.6875 238.24609375 C124.07802458 237.47130884 115.17311977 231.9225206 107.21875 223.63671875 C102.01103226 217.44796968 97.5562319 210.67337385 93 204 C92.11652858 202.71570316 91.23244332 201.4318283 90.34765625 200.1484375 C89.0355736 198.24377745 87.72482923 196.3382563 86.41772461 194.43017578 C82.39373981 188.55610747 78.32286617 182.71524443 74.25 176.875 C68.78267462 169.03380731 63.37088923 161.15751827 58 153.25 C55.67026725 149.83086265 53.33664223 146.41441845 51 143 C50.566875 142.36513672 50.13375 141.73027344 49.6875 141.07617188 C42.7295149 130.93302805 36.04230895 124.53087962 24 121 C21.54859141 120.72178875 19.08820235 120.51442655 16.625 120.375 C15.37976563 120.30023438 14.13453125 120.22546875 12.8515625 120.1484375 C11.44003906 120.07496094 11.44003906 120.07496094 10 120 C10 124.29 10 128.58 10 133 C11.32 132.79375 12.64 132.5875 14 132.375 C17.2624955 132.39036497 18.61415209 132.68506468 21.16796875 134.76953125 C30.55271157 146.0058094 35.39743612 159.17681202 35.25 173.6875 C35.24105713 174.66847656 35.23211426 175.64945313 35.22290039 176.66015625 C34.95220916 193.58046206 31.00329152 206.47054438 19.15234375 219.05078125 C17 221 17 221 13.5 222.8125 C10.18542266 225.71275517 10.46875342 227.43450099 10.125 231.75 C10.05619118 233.83261356 10.00602237 235.91625874 10 238 C6.7 238 3.4 238 0 238 C0 235.36 0 232.72 0 230 C-2.97 230.99 -2.97 230.99 -6 232 C-6 228.7 -6 225.4 -6 222 C-3.03 221.01 -3.03 221.01 0 220 C0 153.34 0 86.68 0 18 C-1.98 17.34 -3.96 16.68 -6 16 C-6 13.03 -6 10.06 -6 7 C-3.525 7.495 -3.525 7.495 -1 8 C-0.67 5.36 -0.34 2.72 0 0 Z " fill="#F3F3F3" transform="translate(235,110)"/>
<path d="M0 0 C7.9378146 -0.07015745 15.87549516 -0.12313924 23.81354523 -0.15543652 C27.50129816 -0.17095391 31.18883578 -0.19192982 34.87646484 -0.22631836 C83.06976541 -0.66385293 83.06976541 -0.66385293 101 15 C110.98690126 25.51475017 114.40912159 38.20606651 114.36865234 52.34228516 C113.98001883 66.78491755 109.25509622 78.20467647 98.8125 88.25 C83.21245083 101.32031147 63.8368197 103.1803548 44.3359375 103.09765625 C43.06271637 103.0962413 41.78949524 103.09482635 40.47769165 103.09336853 C37.12735022 103.08875005 33.77707973 103.07979885 30.42675781 103.06866455 C26.99414679 103.0583512 23.56152837 103.05384986 20.12890625 103.04882812 C13.41924908 103.03785054 6.70963421 103.02061283 0 103 C0 99.37 0 95.74 0 92 C1.03125 91.814375 2.0625 91.62875 3.125 91.4375 C8.98817872 89.70332038 11.57548249 85.37651213 14.6015625 80.328125 C22.26702613 66.05450306 24.76663045 49.31966981 20.56176758 33.54638672 C17.06887461 22.09647321 11.26484855 14.51142217 1.94140625 7.10546875 C0 5 0 5 -0.12133789 2.3684082 C-0.08129639 1.5868335 -0.04125488 0.80525879 0 0 Z " fill="#000000" transform="translate(245,119)"/>
<path d="M0 0 C68 0 68 0 74 1 C74 3.97 74 6.94 74 10 C42.32 9.505 42.32 9.505 10 9 C10 43.32 10 77.64 10 113 C19.590625 112.87625 29.18125 112.7525 39.0625 112.625 C42.05836182 112.59100098 45.05422363 112.55700195 48.14086914 112.52197266 C50.5639752 112.48670735 52.98707175 112.45077971 55.41015625 112.4140625 C56.62892456 112.40270264 57.84769287 112.39134277 59.10339355 112.37963867 C75.94230622 112.10191791 91.9402017 109.03366812 108 104 C108 106.97 108 109.94 108 113 C104.7 114.32 101.4 115.64 98 117 C100.97 117.99 103.94 118.98 107 120 C107 122.97 107 125.94 107 129 C106.41476563 128.81824219 105.82953125 128.63648438 105.2265625 128.44921875 C84.55460547 122.39661872 64.20710088 122.46933129 42.875 122.3125 C32.02625 122.209375 21.1775 122.10625 10 122 C10 156.98 10 191.96 10 228 C31.12 228 52.24 228 74 228 C74 231.3 74 234.6 74 238 C49.58 238 25.16 238 0 238 C0 159.46 0 80.92 0 0 Z " fill="#F3F3F3" transform="translate(124,109)"/>
<path d="M0 0 C8.57129922 7.14274935 13.36011317 15.89286733 15 27 C16.24719272 43.55514562 14.24187297 59.04666873 3.5859375 72.28515625 C2 74 2 74 0 75 C0 50.25 0 25.5 0 0 Z " fill="#040404" transform="translate(245,248)"/>
<path d="M0 0 C4.04683044 4.04683044 5.89187351 6.13481271 8.25 11 C9.00023437 12.5159375 9.00023437 12.5159375 9.765625 14.0625 C14.24916713 24.7321952 13.58396865 40.95626533 9.9140625 51.77734375 C9.61242187 52.51082031 9.31078125 53.24429688 9 54 C8.69835937 54.74378906 8.39671875 55.48757812 8.0859375 56.25390625 C5.91727923 61.04082268 4.01403513 62.98596487 0 67 C0 44.89 0 22.78 0 0 Z " fill="#030303" transform="translate(245,136)"/>
</svg>
